<svg width="112" height="112" viewBox="0 0 112 112" fill="none" xmlns="http://www.w3.org/2000/svg">
<rect width="112" height="112" rx="8" fill="#F9F8F8"/>
<g clip-path="url(#clip0_39_60)">
<path d="M73.2626 88.7475H71.4937C70.0336 88.7475 68.8494 87.5634 68.8494 86.1032C68.8494 84.6431 70.0336 83.4589 71.4937 83.4589H73.2626C74.9655 83.4589 76.3512 82.0736 76.3512 80.3703V39.7151C76.3512 38.0122 74.9658 36.6265 73.2626 36.6265H18.3772C16.6743 36.6265 15.2886 38.0118 15.2886 39.7151V80.3703C15.2886 82.0732 16.674 83.4589 18.3772 83.4589H55.131C56.5912 83.4589 57.7753 84.6431 57.7753 86.1032C57.7753 87.5634 56.5912 88.7475 55.131 88.7475H18.3772C13.7582 88.7475 10 84.9897 10 80.3703V39.7151C10 35.0957 13.7582 31.3379 18.3772 31.3379H73.2628C77.882 31.3379 81.64 35.0957 81.64 39.7151V80.3703C81.6398 84.9897 77.8816 88.7475 73.2626 88.7475Z" fill="#81C03D"/>
<path d="M55.1312 86.1043H36.5096V97.9119H55.1312V86.1043Z" fill="#D0F4A8"/>
<path d="M55.1311 100.555H36.5088C35.0486 100.555 33.8645 99.371 33.8645 97.9108V86.1032C33.8645 84.6431 35.0486 83.4589 36.5088 83.4589H55.1311C56.5912 83.4589 57.7753 84.6431 57.7753 86.1032V97.9108C57.7755 99.3712 56.5914 100.555 55.1311 100.555ZM39.1532 95.2664H52.4868V88.7475H39.1532V95.2664Z" fill="#81C03D"/>
<path d="M61.7872 100.555H29.8528C28.3926 100.555 27.2085 99.371 27.2085 97.9109C27.2085 96.4507 28.3926 95.2666 29.8528 95.2666H61.7872C63.2473 95.2666 64.4315 96.4507 64.4315 97.9109C64.4315 99.371 63.2473 100.555 61.7872 100.555Z" fill="#81C03D"/>
<path d="M99.3557 39.0016C97.8956 39.0016 96.7114 37.8174 96.7114 36.3573C96.7114 25.5367 87.9084 16.7336 77.0878 16.7336C75.6276 16.7336 74.4435 15.5495 74.4435 14.0893C74.4435 12.6292 75.6276 11.445 77.0878 11.445C90.8242 11.4449 102 22.6207 102 36.3573C102 37.8174 100.816 39.0016 99.3557 39.0016Z" fill="#81C03D"/>
<path d="M89.716 39.0015C88.2559 39.0015 87.0717 37.8174 87.0717 36.3573C87.0717 30.8522 82.5927 26.3735 77.0878 26.3735C75.6276 26.3735 74.4435 25.1893 74.4435 23.7292C74.4435 22.269 75.6276 21.0849 77.0878 21.0849C85.5092 21.0849 92.3605 27.9362 92.3605 36.3573C92.3603 37.8174 91.1762 39.0015 89.716 39.0015Z" fill="#81C03D"/>
<path d="M45.8198 72.1372C38.0841 72.1372 31.7905 65.8436 31.7905 58.1075C31.7905 50.3718 38.0841 44.0783 45.8198 44.0783C53.5559 44.0783 59.8494 50.3718 59.8494 58.1075C59.8494 65.8438 53.5559 72.1372 45.8198 72.1372ZM45.8198 49.3672C41.0002 49.3672 37.0793 53.2881 37.0793 58.1077C37.0793 62.9277 41.0002 66.8486 45.8198 66.8486C50.6397 66.8486 54.5607 62.9277 54.5607 58.1077C54.5607 53.2881 50.6396 49.3672 45.8198 49.3672Z" fill="#81C03D"/>
<path d="M40.6274 69.4931C35.1523 71.713 31.2892 77.0795 31.2892 83.3511V86.1036H45.8196H60.35V83.3511C60.35 77.0795 56.4869 71.7133 51.0119 69.4931H40.6274Z" fill="#D0F4A8"/>
<path d="M60.3505 88.7475H31.2894C29.8293 88.7475 28.6451 87.5634 28.6451 86.1032V83.351C28.6451 76.1507 32.9585 69.7492 39.6339 67.0425C39.9495 66.9146 40.2871 66.8486 40.6276 66.8486H51.0125C51.353 66.8486 51.6904 66.9144 52.0061 67.0425C58.6815 69.7493 62.9949 76.1507 62.9949 83.351V86.1032C62.9949 87.5634 61.811 88.7475 60.3505 88.7475ZM33.9337 83.4589H57.7062V83.3511C57.7062 78.4794 54.8828 74.1306 50.4712 72.1376H41.1686C36.7568 74.1306 33.9337 78.4794 33.9337 83.3511V83.4589Z" fill="#81C03D"/>
</g>
<defs>
<clipPath id="clip0_39_60">
<rect width="92" height="92" fill="white" transform="translate(10 10)"/>
</clipPath>
</defs>
</svg>
