<svg width="56" height="58" viewBox="0 0 56 58" fill="none" xmlns="http://www.w3.org/2000/svg">
<g clip-path="url(#clip0_125_180)">
<path d="M25 3.45948C24.3333 3.53833 23.6759 3.64038 23.0278 3.77027C21.406 4.09449 19.822 4.5857 18.3009 5.23609C16.7962 5.87507 15.3534 6.65145 13.9908 7.55542C12.6587 8.44792 11.4181 9.47032 10.287 10.6077C9.15192 11.7409 8.13151 12.984 7.24075 14.3186C6.33855 15.6839 5.56367 17.1296 4.92594 18.6372L4.89816 18.7022C4.52001 19.5937 4.19687 20.5077 3.93057 21.439C3.33334 21.2673 2.77779 21.0725 2.21297 20.8684C1.91806 20.7265 1.60719 20.6206 1.28705 20.553C1.57618 19.559 1.92402 18.5832 2.32872 17.6306L2.35649 17.5564C3.07313 15.8913 3.94261 14.2964 4.95372 12.7925C6.94724 9.82407 9.49572 7.27062 12.4583 5.2732C13.9599 4.26492 15.5516 3.39841 17.213 2.68482C18.9114 1.95884 20.68 1.41013 22.4908 1.04737C26.1882 0.317585 29.9923 0.317585 33.6898 1.04737C35.4726 1.40699 37.2144 1.94627 38.8889 2.65699L38.963 2.68482C40.6243 3.39841 42.216 4.26492 43.7176 5.2732C46.6852 7.26922 49.2385 9.82276 51.2361 12.7925C52.2424 14.297 53.1073 15.8918 53.8195 17.5564C54.5441 19.257 55.0932 21.0273 55.4583 22.8398C56.1806 26.5467 56.1806 30.3586 55.4583 34.0654C55.1006 35.854 54.5607 37.6011 53.8472 39.2793L53.8195 39.3535C53.1073 41.0181 52.2424 42.6129 51.2361 44.1174C49.2426 47.0858 46.6941 49.6393 43.7315 51.6367C42.2299 52.645 40.6382 53.5115 38.9769 54.2251C37.3651 54.9128 35.6906 55.4426 33.9769 55.8069C33.8704 55.3987 33.7361 54.9719 33.5833 54.5081C33.3982 53.9421 33.2454 53.5107 33.1204 53.1489H33.1759C34.7979 52.8254 36.382 52.3341 37.9028 51.6831C39.4075 51.0441 40.8503 50.2677 42.213 49.3638C43.545 48.4713 44.7856 47.4489 45.9167 46.3115C47.0518 45.1783 48.0722 43.9352 48.963 42.6006C49.8652 41.2353 50.6401 39.7896 51.2778 38.282L51.3056 38.217C51.9413 36.713 52.4222 35.1478 52.7407 33.5459C53.0762 31.8722 53.2437 30.169 53.2408 28.4619C53.2432 27.1969 53.1535 25.9333 52.9722 24.6814C52.412 25.8132 52.2454 28.9443 52.2454 29.6216L50.8565 30.0483H50.6482L49.4815 26.4766L48.5787 23.6191L45.5232 29.1252L44.5093 29.7654L43.4537 23.8279L41.4445 22.3992L35.7407 21.3972C37.0695 24.8391 41.6898 27.7568 34.3519 29.283C34.9398 31.0549 38.3843 29.5381 35.1204 33.8149C34.0803 35.1756 33.2624 36.3136 32.6667 37.229L33.1898 41.0466C33.2454 41.4688 32.963 41.9048 32.2963 42.3455L32.2546 42.3733C31.0185 30.7905 23.213 26.9775 14.4445 24.3845C14.7683 23.2707 15.4773 22.3088 16.4445 21.6709C18.5556 18.6233 20.1111 17.8022 23.5278 17.8022V19.8618L26.4306 21.1375L26.7037 19.8618C27.2463 19.9647 27.7666 20.1626 28.2408 20.4463C29.0602 20.9751 31.3472 21.1653 31.5695 19.885C31.671 19.3046 31.7206 18.7162 31.7176 18.127L29.4028 18.3357C28.3333 16.0952 25.6482 16.3596 22.6852 13.2517C12.662 16.8606 18.2408 14.416 18.2408 11.1921L22.5278 9.22998C22.1435 5.83911 22.1019 8.97022 21.4722 5.89478C22.4453 5.34153 23.374 4.71342 24.25 4.01612C24.5232 3.80274 24.7824 3.61719 25.0185 3.45948H25ZM33.7963 3.90479C33.5926 3.85376 33.3843 3.81201 33.1759 3.77027C32.4028 3.61719 31.6111 3.49658 30.8102 3.41309C31.7292 3.88746 32.7741 4.05952 33.7963 3.90479Z" fill="#81C03D"/>
<path d="M6.05092 42.582C5.25453 41.4029 4.57094 40.1511 4.00925 38.8433C3.42762 37.5197 2.96287 36.1476 2.62036 34.7427L7.27777 36.9739C7.35647 39.1169 6.13888 40.3787 6.0324 42.582H6.05092Z" stroke="#231F20" stroke-width="3.74" stroke-linecap="round" stroke-linejoin="round"/>
<path d="M6.05092 42.582C5.25453 41.4029 4.57094 40.1511 4.00925 38.8433C3.42762 37.5197 2.96287 36.1476 2.62036 34.7427L7.27777 36.9739C7.35647 39.1169 6.13888 40.3787 6.0324 42.582H6.05092Z" fill="black"/>
<path fill-rule="evenodd" clip-rule="evenodd" d="M27.7778 52.198C29.0879 54.0813 29.1666 53.9885 29.7639 55.7605C30.3611 57.5325 30.5602 58.2793 29.2037 56.4609C27.9352 54.7632 27.8148 54.7771 26.0416 53.2139L25.6296 53.2881C9.18979 55.9646 -2.45373 48.1995 0.462941 24.4866C12.8703 29.2598 30.7407 28.1094 28.1389 50.4028C28.1085 51.0163 27.9852 51.6216 27.7731 52.198H27.7778ZM23.5185 48.4871C19.7083 39.4648 9.25924 36.0833 4.24535 29.8489C9.5509 41.1348 12.662 40.7498 23.5139 48.4731L23.5185 48.4871Z" fill="#81C03D"/>
</g>
<defs>
<clipPath id="clip0_125_180">
<rect width="56" height="57" fill="white" transform="translate(0 0.5)"/>
</clipPath>
</defs>
</svg>
