<svg width="75" height="50" viewBox="0 0 75 50" fill="none" xmlns="http://www.w3.org/2000/svg">
<path d="M73.2315 47.5884H71.865V12.7814C71.865 12.1154 71.3252 11.5756 70.6592 11.5756H69.2926V7.63666C69.2926 6.97074 68.7529 6.43087 68.0868 6.43087H57.717V1.20579C57.717 0.539871 57.1773 0 56.5113 0C55.8452 0 55.3055 0.539871 55.3055 1.20579V6.43087H50.0804C49.4143 6.43087 48.8746 6.97074 48.8746 7.63666V11.5756H47.508C46.842 11.5756 46.3023 12.1154 46.3023 12.7814V37.299H40.9968V10.209C40.9968 9.9709 40.9264 9.73826 40.7942 9.54003L38.2217 5.68151C37.9981 5.34614 37.6217 5.14469 37.2185 5.14469H34.5659V3.77813C34.5659 1.69486 32.8711 0 30.7878 0H17.926C15.8428 0 14.1479 1.69486 14.1479 3.77813V5.14469H11.4947C11.0915 5.14469 10.715 5.34614 10.4915 5.68167L7.91945 9.54019C7.78746 9.73826 7.71704 9.97106 7.71704 10.209V37.299H3.77814C3.11206 37.299 2.57235 37.8389 2.57235 38.5048V47.5884H1.20579C0.539711 47.5884 0 48.1283 0 48.7942C0 49.4601 0.539711 50 1.20579 50H73.2315C73.8976 50 74.4373 49.4601 74.4373 48.7942C74.4373 48.1283 73.8976 47.5884 73.2315 47.5884ZM28.135 32.1543V12.701H38.5852V32.1543H28.135ZM38.5852 34.5659V37.299H28.135V34.5659H38.5852ZM36.5732 7.55627L38.3953 10.2894H28.3248L30.1466 7.55627H36.5732ZM16.5595 3.77813C16.5595 3.0246 17.1725 2.41158 17.926 2.41158H30.7878C31.5413 2.41158 32.1543 3.0246 32.1543 3.77813V5.14469H29.5011C29.0979 5.14469 28.7214 5.34614 28.4979 5.68167L25.9259 9.54019C25.7941 9.73826 25.7235 9.9709 25.7235 10.209V37.299H22.9904V10.209C22.9904 9.9709 22.9199 9.73826 22.7878 9.54003L20.2153 5.68151C19.9916 5.34614 19.6153 5.14469 19.2121 5.14469H16.5595V3.77813ZM12.1402 7.55627H18.5669L20.3891 10.2894H10.3183L12.1402 7.55627ZM10.1286 12.701H20.5788V32.1543H10.1286V12.701ZM10.1286 34.5659H20.5788V37.299H10.1286V34.5659ZM46.3023 47.5884H4.98392V39.7106H46.3023V47.5884ZM57.717 8.84244H66.881V11.5756H57.717V8.84244ZM51.2862 8.84244H55.3055V11.5756H51.2862V8.84244ZM51.4469 19.2122V47.5884H48.7138V38.5048V13.9871H55.3055V16.6399C55.3055 16.6842 55.2693 16.7203 55.2251 16.7203H53.9389C52.5648 16.7203 51.4469 17.8381 51.4469 19.2122ZM69.4534 16.7203H68.0868C67.4207 16.7203 66.881 17.2601 66.881 17.926C66.881 18.592 67.4207 19.1318 68.0868 19.1318H69.4534V21.865H68.0868C67.4207 21.865 66.881 22.4048 66.881 23.0707C66.881 23.7367 67.4207 24.2765 68.0868 24.2765H69.4534V27.0096H68.0868C67.4207 27.0096 66.881 27.5495 66.881 28.2154C66.881 28.8813 67.4207 29.4212 68.0868 29.4212H69.4534V32.1543H68.0868C67.4207 32.1543 66.881 32.6942 66.881 33.3601C66.881 34.026 67.4207 34.5659 68.0868 34.5659H69.4534V37.299H68.0868C67.4207 37.299 66.881 37.8389 66.881 38.5048C66.881 39.1707 67.4207 39.7106 68.0868 39.7106H69.4534V42.4437H68.0868C67.4207 42.4437 66.881 42.9836 66.881 43.6495C66.881 44.3154 67.4207 44.8553 68.0868 44.8553H69.4534V47.5884H53.8585V19.2122C53.8585 19.1678 53.8947 19.1318 53.9389 19.1318H55.2251C56.5992 19.1318 57.717 18.014 57.717 16.6399V13.9871H69.4534V16.7203Z" fill="#81C03D"/>
</svg>
