<svg width="60" height="60" viewBox="0 0 60 60" fill="none" xmlns="http://www.w3.org/2000/svg">
<g clip-path="url(#clip0_125_193)">
<path d="M50.5059 40.0061C47.6539 42.8578 44.7627 44.304 41.9125 44.304H41.912C38.9834 44.3037 37.0549 42.7902 36.2772 42.0385C33.6848 43.8474 32.1703 45.9917 32.008 48.1312V58.0113C32.008 59.1099 31.1179 60 30.0194 60C28.9208 60 28.0307 59.1099 28.0307 58.0113V51.6074C28.0193 51.5209 28.0113 51.4334 28.0113 51.3441V48.5138C28.0113 46.2489 26.4697 43.9556 23.7228 42.0385C22.9451 42.7905 21.0169 44.304 18.0885 44.304H18.088C15.2373 44.3037 12.3461 42.8578 9.49435 40.0061C1.73383 32.2458 2.8679 22.8348 2.91987 22.4381C3.03706 21.545 3.73999 20.8421 4.63276 20.7249C4.69878 20.7164 5.30545 20.6406 6.29076 20.6406C9.07196 20.6406 16.1905 21.2894 22.2008 27.2994C25.1782 30.2768 26.6214 33.2898 26.491 36.2544C26.4491 37.2021 26.2494 38.0363 25.9779 38.7551C26.7288 39.2748 27.4148 39.8202 28.031 40.3892V22.9777H26.8171C23.1922 22.9777 20.2431 20.0286 20.2431 16.4037V10.9994C19.3236 10.8244 18.6284 10.0175 18.6284 9.04704C18.6284 7.94851 19.5185 7.05839 20.617 7.05839H22.2318H23.3956V1.98865C23.3956 0.89012 24.2857 0 25.3842 0C26.4827 0 27.3729 0.89012 27.3729 1.98865V7.05839H32.6277V1.98865C32.6277 0.89012 33.5178 0 34.6163 0C35.7149 0 36.605 0.89012 36.605 1.98865V7.05839H37.7687H39.3835C40.482 7.05839 41.3722 7.94851 41.3722 9.04704C41.3722 10.0175 40.6769 10.8244 39.7574 10.9994V16.4037C39.7574 20.0286 36.8083 22.9777 33.1834 22.9777H32.0083V40.3545C32.6144 39.7982 33.2871 39.2642 34.0224 38.7554C33.7509 38.0368 33.5512 37.2024 33.5096 36.255C33.3788 33.2898 34.8221 30.2768 37.7998 27.2997C43.8097 21.2897 50.9283 20.6409 53.7098 20.6409C54.6945 20.6409 55.3015 20.7167 55.3675 20.7252C56.2605 20.8424 56.9635 21.5453 57.0807 22.4384C57.1324 22.835 58.2656 32.2458 50.5059 40.0061Z" fill="#81C03D"/>
</g>
<defs>
<clipPath id="clip0_125_193">
<rect width="60" height="60" fill="white"/>
</clipPath>
</defs>
</svg>
