<svg width="66" height="56" viewBox="0 0 66 56" fill="none" xmlns="http://www.w3.org/2000/svg">
<path fill-rule="evenodd" clip-rule="evenodd" d="M2.00342 10.4699H19.0459V2.26557C19.0459 1.02063 20.0234 0 21.2212 0H44.1128C45.3052 0 46.2827 1.02063 46.2827 2.26557V10.4642H63.9966C65.0977 10.4642 66 11.4064 66 12.556V53.9082C66 55.0578 65.0977 56 63.9966 56H2.00342C0.902344 56.0056 0 55.0635 0 53.9139V12.5616C0 11.4064 0.902344 10.4642 2.00342 10.4699ZM23.3911 10.4699H41.9375V6.45463C41.9375 5.20969 40.96 4.18906 39.7676 4.18906H25.5664C24.374 4.18906 23.3965 5.20969 23.3965 6.45463V10.4699H23.3911ZM37.1948 19.7733V28.8524H45.8906V37.6174H37.1948V46.6965H28.7998V37.6174H20.104V28.8524H28.7998V19.7733H37.1948Z" fill="#81C03D"/>
</svg>
