<svg width="24" height="24" viewBox="0 0 24 24" fill="none" xmlns="http://www.w3.org/2000/svg">
<path d="M11.978 1.5C9.81634 1.50258 7.74394 2.3726 6.2154 3.91922C4.68687 5.46584 3.82702 7.56276 3.82447 9.75C3.82188 11.5374 4.39891 13.2763 5.46704 14.7C5.46704 14.7 5.68941 14.9963 5.72573 15.039L11.978 22.5L18.2333 15.0353C18.2659 14.9955 18.489 14.7 18.489 14.7L18.4897 14.6978C19.5573 13.2747 20.1341 11.5366 20.1316 9.75C20.129 7.56276 19.2692 5.46584 17.7406 3.91922C16.2121 2.3726 14.1397 1.50258 11.978 1.5ZM11.978 12.75C11.3916 12.75 10.8184 12.5741 10.3308 12.2444C9.84321 11.9148 9.46319 11.4462 9.23878 10.8981C9.01437 10.3499 8.95566 9.74667 9.07006 9.16473C9.18446 8.58279 9.46684 8.04824 9.88149 7.62868C10.2961 7.20912 10.8244 6.9234 11.3996 6.80764C11.9747 6.69189 12.5709 6.7513 13.1126 6.97836C13.6544 7.20542 14.1175 7.58994 14.4433 8.08329C14.769 8.57664 14.9429 9.15666 14.9429 9.75C14.942 10.5453 14.6293 11.3078 14.0734 11.8702C13.5176 12.4326 12.7641 12.749 11.978 12.75Z" fill="white"/>
</svg>
