<svg width="24" height="24" viewBox="0 0 24 24" fill="none" xmlns="http://www.w3.org/2000/svg">
<path d="M19.8845 10.999H21.8611C21.8611 5.869 18.0334 2 12.9564 2V4C16.9709 4 19.8845 6.943 19.8845 10.999Z" fill="white"/>
<path d="M12.9662 7.99999C15.0447 7.99999 15.9312 8.89699 15.9312 11H17.9078C17.9078 7.77499 16.1535 5.99999 12.9662 5.99999V7.99999ZM16.3482 13.443C16.1583 13.2683 15.9088 13.1752 15.6523 13.1832C15.3958 13.1912 15.1524 13.2998 14.9735 13.486L12.6085 15.947C12.0392 15.837 10.8948 15.476 9.71669 14.287C8.53863 13.094 8.18185 11.933 8.0761 11.361L10.5063 8.96699C10.6906 8.78612 10.798 8.53982 10.806 8.2802C10.8139 8.02059 10.7217 7.76804 10.5488 7.57599L6.89705 3.51299C6.72413 3.32035 6.48381 3.2035 6.22712 3.18725C5.97043 3.17101 5.7176 3.25665 5.52231 3.42599L3.37768 5.28699C3.20681 5.46051 3.10483 5.69145 3.09107 5.93599C3.07625 6.18599 2.79359 12.108 7.3319 16.702C11.2911 20.707 16.2504 21 17.6162 21C17.8159 21 17.9384 20.994 17.971 20.992C18.2127 20.9783 18.4408 20.8747 18.6115 20.701L20.4497 18.53C20.6172 18.3325 20.702 18.0768 20.6861 17.817C20.6703 17.5573 20.555 17.3141 20.3647 17.139L16.3482 13.443Z" fill="white"/>
</svg>
