<svg width="59" height="58" viewBox="0 0 59 58" fill="none" xmlns="http://www.w3.org/2000/svg">
<path fill-rule="evenodd" clip-rule="evenodd" d="M29.3984 0C40.3995 6.23755 50.3378 9.18853 58.8672 8.4909C60.3569 35.4415 49.2302 51.3575 29.5123 58C10.4709 51.7827 -0.791884 36.5516 0.0434355 8.08214C10.0562 8.55085 19.8795 6.61468 29.3984 0ZM17.8268 31.5181C17.2042 31.0414 17.1313 30.2031 17.6638 29.6457C18.1973 29.0883 19.1344 29.0236 19.7571 29.4999L25.8223 34.1609L39.1093 21.0939C39.6618 20.5511 40.6016 20.5115 41.2089 21.0052C41.8152 21.4989 41.8595 22.3395 41.3076 22.8828L27.0496 36.9051L27.0486 36.9042C26.5104 37.4333 25.5969 37.4876 24.9854 37.0194L17.8268 31.5181Z" fill="#81C03D"/>
</svg>
