<svg width="44" height="58" viewBox="0 0 44 58" fill="none" xmlns="http://www.w3.org/2000/svg">
<g clip-path="url(#clip0_125_171)">
<path fill-rule="evenodd" clip-rule="evenodd" d="M22.002 0.00450059C23.0124 -0.0379799 23.8087 0.316024 24.6142 0.83523C25.6339 1.49132 26.784 2.78933 28.2041 3.61062C30.2016 4.76703 33.8986 3.17166 35.7891 6.02257C36.8926 7.68402 36.9438 8.98676 37.0276 10.2753C37.1161 11.663 37.3582 12.9422 38.7597 14.8207C41.0832 17.936 41.5674 20.0081 40.3708 22.1651C39.5559 23.6378 37.8378 24.4544 37.442 25.3889C36.5946 27.3714 37.5305 28.8676 36.3757 31.1804C35.5702 32.7853 34.3317 33.8425 32.6787 34.3806C31.2865 34.8338 29.8897 34.1777 28.7722 34.6544C26.8119 35.4898 25.3685 37.4298 23.8087 37.9207C23.208 38.1095 22.6074 38.2039 22.0067 38.1992C21.4061 38.2039 20.8054 38.1095 20.2048 37.9207C18.6449 37.4298 17.2015 35.4898 15.2412 34.6544C14.1238 34.1777 12.7269 34.8385 11.3347 34.3806C9.68174 33.8425 8.44319 32.7853 7.63767 31.1804C6.47828 28.8676 7.41417 27.3714 6.5714 25.3889C6.17562 24.4544 4.45749 23.6378 3.64265 22.1651C2.4367 20.0081 2.92094 17.936 5.24438 14.8255C6.6459 12.9469 6.88802 11.6677 6.97649 10.2801C7.0603 8.99148 7.11152 7.68875 8.21504 6.02729C10.1101 3.17638 13.8071 4.77175 15.8 3.61534C17.2201 2.79405 18.3702 1.49604 19.3899 0.83995C20.1908 0.316024 20.9917 -0.0426999 22.002 0.00450059ZM22.002 12.2578L24.0787 17.4026L29.5497 17.8133L25.3638 21.4052L26.6676 26.805L22.002 23.8785L17.3365 26.805L18.6403 21.4052L14.4543 17.8133L19.9254 17.4026L22.002 12.2578ZM41.9213 53.3694L36.5434 52.3924L33.8754 57.2351C31.9384 59.666 30.7091 55.6681 30.169 54.2757L24.9774 44.3494C26.174 43.9293 27.6174 42.7162 29.0981 41.3522C32.0548 41.4135 34.8113 40.8943 36.8367 38.2794L42.8013 49.9615L43.3181 51.0849C43.7279 52.5434 43.5137 53.5063 41.9213 53.3694ZM2.07817 53.3694L7.46073 52.3924L10.1287 57.2351C12.0657 59.666 13.295 55.6681 13.8351 54.2757L19.0267 44.3494C17.8301 43.9293 16.3867 42.7162 14.906 41.3522C11.9493 41.4135 9.19284 40.8943 7.16739 38.2794L1.19815 49.9615L0.681308 51.0849C0.271562 52.5434 0.485747 53.5063 2.07817 53.3694ZM21.9462 7.59906C28.3717 7.59906 33.582 12.8808 33.582 19.3945C33.582 25.9081 28.3717 31.1899 21.9462 31.1899C15.5206 31.1899 10.3103 25.9081 10.3103 19.3945C10.315 12.8808 15.5206 7.59906 21.9462 7.59906Z" fill="#81C03D"/>
</g>
<defs>
<clipPath id="clip0_125_171">
<rect width="43" height="58" fill="white" transform="translate(0.5)"/>
</clipPath>
</defs>
</svg>
